Coordinates
version=1
nRows=43
nColumns=12
inDegrees=yes

Units are S.I. units (second, meters, Newtons, ...)
Angles are in degrees

endheader
time	SC_y	SC_z	SC_x	AC_y	AC_z	AC_x	GH_y	GH_z	GH_yy	EL_x	PS_y
       0.0              -54.07          36.19          23.14          42.14         -4.949         -15.22          139.0          60.93          158.4          126.4          106.6
   0.03972              -54.07          36.18          23.14          42.15          -4.95         -15.21          139.0          60.93          158.4          126.4          106.6
   0.07945              -54.06          36.18          23.14          42.15         -4.951         -15.21          138.9          60.93          158.4          126.4          106.6
    0.1192              -54.06          36.17          23.15          42.16         -4.952         -15.21          138.9          60.93          158.3          126.4          106.6
    0.1589              -54.05          36.16          23.15          42.16         -4.953          -15.2          138.9          60.93          158.3          126.4          106.6
    0.1986              -54.05          36.16          23.15          42.17         -4.954          -15.2          138.9          60.93          158.2          126.3          106.6
    0.2383              -54.04          36.15          23.15          42.17         -4.955          -15.2          138.8          60.93          158.2          126.3          106.6
    0.2781              -54.03          36.14          23.15          42.18         -4.957         -15.19          138.8          60.93          158.1          126.3          106.6
    0.3178              -54.02          36.13          23.16          42.18         -4.958         -15.19          138.7          60.93          158.1          126.3          106.5
    0.3575              -54.02          36.12          23.16          42.19         -4.959         -15.18          138.7          60.93          158.0          126.3          106.5
    0.3972              -54.01          36.11          23.16           42.2         -4.961         -15.18          138.7          60.93          158.0          126.3          106.5
     0.437               -54.0           36.1          23.17           42.2         -4.963         -15.17          138.6          60.93          157.9          126.3          106.5
    0.4767              -53.99          36.09          23.17          42.21         -4.965         -15.17          138.6          60.93          157.9          126.3          106.5
    0.5164              -53.97          36.07          23.18          42.22         -4.967         -15.16          138.5          60.93          157.8          126.3          106.5
    0.5561              -53.96          36.06          23.18          42.23         -4.969         -15.15          138.5          60.93          157.7          126.3          106.5
    0.5959              -53.95          36.04          23.18          42.24         -4.971         -15.14          138.4          60.93          157.6          126.3          106.5
    0.6356              -53.93          36.02          23.19          42.25         -4.974         -15.13          138.3          60.94          157.5          126.3          106.5
    0.6753              -53.92          36.01           23.2          42.27         -4.977         -15.13          138.2          60.94          157.4          126.2          106.5
     0.715               -53.9          35.99           23.2          42.28          -4.98         -15.11          138.2          60.94          157.3          126.2          106.5
    0.7548              -53.88          35.96          23.21           42.3         -4.984          -15.1          138.1          60.94          157.2          126.2          106.5
    0.7945              -53.86          35.94          23.22          42.31         -4.987         -15.09          138.0          60.94          157.1          126.2          106.4
    0.8342              -53.84          35.91          23.22          42.33         -4.991         -15.08          137.9          60.94          156.9          126.2          106.4
    0.8739              -53.81          35.88          23.23          42.35         -4.996         -15.06          137.7          60.94          156.8          126.2          106.4
    0.9136              -53.78          35.85          23.24          42.37         -5.001         -15.05          137.6          60.95          156.6          126.1          106.4
    0.9534              -53.75          35.81          23.25           42.4         -5.007         -15.03          137.5          60.95          156.4          126.1          106.4
    0.9931              -53.72          35.77          23.27          42.43         -5.013         -15.01          137.3          60.95          156.2          126.1          106.3
     1.033              -53.68          35.72          23.28          42.46          -5.02         -14.98          137.1          60.95          155.9          126.0          106.3
     1.073              -53.64          35.67           23.3          42.49         -5.028         -14.96          136.9          60.96          155.7          126.0          106.3
     1.112              -53.59          35.61          23.31          42.53         -5.037         -14.93          136.7          60.96          155.3          126.0          106.3
     1.152              -53.53          35.55          23.33          42.58         -5.047          -14.9          136.4          60.96          155.0          125.9          106.2
     1.192              -53.47          35.47          23.36          42.63         -5.058         -14.86          136.1          60.97          154.6          125.9          106.2
     1.231              -53.39          35.39          23.38          42.69         -5.072         -14.81          135.7          60.97          154.1          125.8          106.1
     1.271              -53.31          35.29          23.41          42.75         -5.087         -14.76          135.3          60.98          153.6          125.7          106.1
     1.311              -53.21          35.17          23.45          42.83         -5.105         -14.71          134.8          60.99          153.0          125.7          106.0
     1.351              -53.09          35.03          23.49          42.92         -5.126         -14.64          134.3          60.99          152.2          125.6          105.9
      1.39              -52.96          34.87          23.54          43.03          -5.15         -14.56          133.6           61.0          151.4          125.5          105.8
      1.43              -52.79          34.68          23.59          43.16         -5.179         -14.46          132.9          61.01          150.4          125.3          105.7
      1.47               -52.6          34.45          23.66          43.32         -5.214         -14.35          131.9          61.03          149.1          125.2          105.6
      1.51              -52.36          34.18          23.75           43.5         -5.257         -14.21          130.8          61.04          147.7          125.0          105.4
     1.549              -52.08          33.84          23.85          43.73         -5.308         -14.04          129.4          61.06          145.8          124.7          105.3
     1.589              -51.72          33.42          23.97          44.01         -5.372         -13.83          127.7          61.09          143.6          124.4          105.0
     1.629              -51.28           32.9          24.13          44.37         -5.452         -13.57          125.6          61.12          140.8          124.1          104.7
     1.668              -50.72          32.24          24.33          44.81         -5.552         -13.24          123.0          61.16          137.3          123.6          104.4
